<svg xmlns="http://www.w3.org/2000/svg" viewBox="0 0 1200 300" width="1200" height="300" role="img" aria-label="Contech-AI — Autodesk Connector for Claude, by EnTech Labs">
  <title>Contech-AI — Autodesk Connector for Claude</title>

  <rect width="1200" height="300" fill="#ffffff"/>
  <rect y="296" width="1200" height="4" fill="#231f20"/>

  <!-- ENTECH wordmark, drawn in the logo's squared-terminal style -->
  <g fill="#231f20" transform="translate(64,52) scale(0.46)">
    <!-- E -->
    <path d="M0 0 h96 v22 H24 a8 8 0 0 0 -8 8 v18 h72 v22 H16 v18 a8 8 0 0 0 8 8 h72 v22 H0 Z"/>
    <!-- N -->
    <path d="M116 0 h22 l58 76 V0 h22 v118 h-22 l-58 -76 v76 h-22 Z"/>
    <!-- T -->
    <path d="M232 0 h114 v22 h-46 v96 h-22 V22 h-46 Z"/>
    <!-- E -->
    <path d="M360 0 h96 v22 h-72 a8 8 0 0 0 -8 8 v18 h72 v22 h-72 v18 a8 8 0 0 0 8 8 h72 v22 h-96 Z"/>
    <!-- C -->
    <path d="M568 0 h-72 a24 24 0 0 0 -24 24 v70 a24 24 0 0 0 24 24 h72 v-22 h-66 a8 8 0 0 1 -8 -8 V30 a8 8 0 0 1 8 -8 h66 Z"/>
    <!-- H -->
    <path d="M588 0 h22 v48 h60 V0 h22 v118 h-22 V70 h-60 v48 h-22 Z"/>
  </g>

  <text x="64" y="128" font-family="Helvetica Neue, Helvetica, Arial, sans-serif"
        font-size="15" letter-spacing="6.5" fill="#6b7178">L A B S</text>

  <text x="64" y="205" font-family="Helvetica Neue, Helvetica, Arial, sans-serif"
        font-size="58" font-weight="700" fill="#231f20" letter-spacing="-1.2">Contech-AI</text>

  <text x="64" y="245" font-family="Helvetica Neue, Helvetica, Arial, sans-serif"
        font-size="21" fill="#4a4f55">Ask Claude about your Autodesk Construction Cloud project.</text>

  <!-- data path motif: you -> connector -> ACC -->
  <g transform="translate(724,112) scale(0.88)" font-family="Helvetica Neue, Helvetica, Arial, sans-serif">
    <rect x="0" y="0" width="116" height="52" rx="6" fill="#ffffff" stroke="#231f20" stroke-width="2"/>
    <text x="58" y="31" font-size="14" fill="#231f20" text-anchor="middle">Claude</text>

    <path d="M124 26 h44" stroke="#1565c0" stroke-width="2" fill="none"/>
    <path d="M162 21 l8 5 l-8 5 z" fill="#1565c0"/>

    <rect x="176" y="0" width="116" height="52" rx="6" fill="#ffffff" stroke="#231f20" stroke-width="2"/>
    <text x="234" y="24" font-size="13" fill="#231f20" text-anchor="middle">MCP server</text>
    <text x="234" y="40" font-size="11" fill="#6b7178" text-anchor="middle">your laptop</text>

    <path d="M300 26 h44" stroke="#1565c0" stroke-width="2" fill="none"/>
    <path d="M338 21 l8 5 l-8 5 z" fill="#1565c0"/>

    <rect x="352" y="0" width="116" height="52" rx="6" fill="#ffffff" stroke="#231f20" stroke-width="2"/>
    <text x="410" y="31" font-size="14" fill="#231f20" text-anchor="middle">ACC</text>

    <text x="234" y="86" font-size="12" fill="#6b7178" text-anchor="middle">read-only · your Autodesk permissions</text>
  </g>
</svg>
